<?xml version="1.0" encoding="iso-8859-1"?>
<!-- Uploaded to: SVG Repo, www.svgrepo.com, Generator: SVG Repo Mixer Tools -->
<svg version="1.1" id="Layer_1" xmlns="http://www.w3.org/2000/svg" xmlns:xlink="http://www.w3.org/1999/xlink" 
	 viewBox="0 0 512 512" xml:space="preserve">
<path style="fill:#FFD248;" d="M256.104,442.771l55.261,55.261c-9.282,2.02-18.782,3.301-28.699,3.301h-53.333
	c-9.812,0-19.312-1.177-28.583-3.302L256.104,442.771z"/>
<path style="fill:#FFBE48;" d="M331.416,367.364l64.854,64.844c-17.073,32.854-47.895,57.281-84.907,65.823l-55.261-55.261
	L331.416,367.364z"/>
<g>
	<path style="fill:#FFD248;" d="M410.667,295.792v77.541c0,21.229-5.229,41.281-14.396,58.875l-64.854-64.844l75.406-75.417
		L410.667,295.792z"/>
	<path style="fill:#FFD248;" d="M410.667,266.667v21.438l-3.843,3.844l-75.406-75.417l41.062-41.062
		C396.052,198.719,410.667,230.932,410.667,266.667z"/>
	<path style="fill:#FFD248;" d="M286.614,138.771c33.386,0.963,63.573,14.828,85.865,36.698l-41.062,41.062L256,141.12l2.459-2.453
		h8.208C271.895,138.88,278.823,138.984,286.614,138.771z"/>
	<polygon style="fill:#FFD248;" points="331.416,216.531 256,291.948 180.583,216.531 256,141.12 	"/>
</g>
<polygon style="fill:#FFBE48;" points="406.823,291.948 331.416,367.364 256,291.948 331.416,216.531 "/>
<polygon style="fill:#FFD248;" points="331.416,367.364 256.104,442.771 180.688,367.364 256,291.948 "/>
<path style="fill:#FFBE48;" d="M256.104,442.771l-55.355,55.261c-37.021-8.427-67.948-32.969-85.021-65.823l64.958-64.844
	L256.104,442.771z"/>
<path style="fill:#FFD248;" d="M105.281,291.948l75.406,75.417l-64.958,64.844c-9.167-17.594-14.396-37.646-14.396-58.875v-77.541
	L105.281,291.948z"/>
<polygon style="fill:#FFBE48;" points="256,291.948 180.688,367.364 105.281,291.948 180.583,216.531 "/>
<path style="fill:#FFD248;" d="M180.583,216.531l-75.302,75.417L101.333,288v-21.333c0-35.734,14.614-67.948,38.188-91.198
	L180.583,216.531z"/>
<path style="fill:#FFBE48;" d="M256,141.12l-75.417,75.411l-41.062-41.062c23.146-22.724,54.833-36.802,89.812-36.802h8.75h7.25
	c3.625,0.105,6.396,0.105,8.208,0L256,141.12z"/>
<g>
	<path style="fill:#31C0D8;" d="M357.229,127.145c-15.895,8.641-47.146,11.203-70.614,11.626c-1.281-0.105-2.667-0.105-3.948-0.105
		h-16c0,0,0.636-0.318,0.427-0.318c-3.302,0.213-6.511,0.213-8.636,0.318H256l0.105-0.105l53.125-43.417l53.333-42.667
		C362.562,52.479,400,103.895,357.229,127.145z"/>
	<path style="fill:#31C0D8;" d="M282.24,62.078L298.667,16c0,0,42.667,42.667,10.562,79.146l-53.125,43.417l0.105-0.64
		L282.24,62.078z"/>
	<path style="fill:#31C0D8;" d="M282.24,62.078l-26.031,75.844l-0.313-0.11l-26.563-76.374C230.396,35.308,256,10.666,256,10.666
		C272.75,27.411,280.75,56.104,282.24,62.078z"/>
	<path style="fill:#31C0D8;" d="M256.104,138.562L256,138.666l-53.438-43.521C170.667,53.333,213.333,16,213.333,16l16,45.438
		l26.562,76.375l0.313,0.11L256.104,138.562z"/>
	<path style="fill:#31C0D8;" d="M238.083,138.666c-22.833,0-64.323-1.172-83.521-11.521c-42.771-22.932-5.333-74.667-5.333-74.667
		l53.333,42.667L256,138.666h-2.459h-8.208H238.083z"/>
</g>
<g>
	<path style="fill:#231F20;" d="M379.97,167.874l-0.001,0.002c-0.007-0.006-0.013-0.015-0.02-0.021
		c-10.362-10.165-22.079-18.534-34.719-24.934c6.441-1.69,12.286-3.789,17.093-6.402c13.514-7.346,21.887-17.815,24.885-31.117
		c6.332-28.076-15.108-57.942-16.023-59.2c-1.714-2.354-4.318-3.906-7.205-4.293c-2.885-0.385-5.806,0.422-8.081,2.242
		l-24.01,19.207c-0.229-8.272-2.262-16.891-6.128-25.735c-7.376-16.879-19.058-28.671-19.552-29.165
		c-2.587-2.587-6.322-3.666-9.886-2.864c-3.569,0.803-6.476,3.379-7.705,6.825l-6.496,18.222
		c-4.535-9.495-10.641-19.578-18.582-27.517c-4.109-4.107-10.749-4.173-14.939-0.142c-0.713,0.686-11.18,10.896-19.548,25.553
		l-5.661-16.076c-1.175-3.338-3.931-5.876-7.353-6.774c-3.426-0.9-7.069-0.041-9.732,2.29C205.801,8.417,193.837,19,186.29,35.447
		c-3.508,7.648-6.381,17.251-6.254,28.021l-24.145-19.316c-2.278-1.823-5.204-2.631-8.097-2.241
		c-2.893,0.393-5.497,1.952-7.209,4.317c-0.918,1.269-22.423,31.413-15.964,59.498c3.043,13.226,11.42,23.596,24.877,30.811
		c4.58,2.469,10.357,4.581,17.292,6.34c-12.635,6.401-24.351,14.778-34.745,24.982c-0.006,0.005-0.011,0.013-0.017,0.018
		l-0.001-0.001c-26.671,26.306-41.361,61.392-41.361,98.79V288v7.792v77.541c0,22.146,5.394,44.205,15.598,63.794l0,0
		c0.001,0.002,0.002,0.004,0.004,0.006c0,0.001,0,0.002,0.001,0.003l0.001,0.001c18.852,36.27,52.419,62.253,92.096,71.29l0,0
		c0.002,0,0.003,0,0.005,0.001c0.003,0.001,0.007,0.002,0.011,0.003c0.002,0.001,0.004,0.001,0.006,0.001
		C208.721,510.8,219.133,512,229.333,512h53.333c9.878,0,20.007-1.159,30.967-3.547l-0.001-0.006c0.043-0.01,0.087-0.013,0.13-0.022
		c39.657-9.152,73.175-35.135,91.966-71.286l0.001-0.001c0.001-0.001,0.001-0.002,0.001-0.003c0.002-0.002,0.003-0.004,0.004-0.006
		l0,0c10.204-19.589,15.598-41.648,15.598-63.794v-77.541v-7.687v-21.438C421.333,229.268,406.644,194.182,379.97,167.874z
		 M256.099,427.682l-60.332-60.322l60.238-60.321l60.332,60.332L256.099,427.682z M112,313.753l53.597,53.604l-46.411,46.329
		c-4.724-12.877-7.186-26.595-7.186-40.353V313.753z M120.36,291.942l60.228-60.321l60.332,60.332l-60.238,60.321L120.36,291.942z
		 M256,156.205l60.332,60.327L256,276.863l-60.332-60.332L256,156.205z M331.416,352.279l-60.331-60.331l60.331-60.332
		l60.323,60.332L331.416,352.279z M400,313.858v59.475c0,13.754-2.46,27.468-7.181,40.339l-46.317-46.309L400,313.858z M400,270.038
		l-53.499-53.506l25.695-25.695C390.194,212.024,400,238.573,400,266.667V270.038z M331.416,201.446l-51.899-51.895
		c2.193-0.01,4.528-0.043,6.994-0.109c25.843,0.791,50.489,10.096,70.468,26.442L331.416,201.446z M359.691,68.437
		c4.586,9.068,9.095,21.788,6.697,32.322c-1.621,7.117-6.283,12.683-14.252,17.015c-11.003,5.98-34.746,9.735-65.292,10.323
		c-0.34-0.021-0.679-0.041-1.012-0.052l30.106-24.605L359.691,68.437z M302.086,38.17c1.539,2.591,3.038,5.44,4.334,8.476
		c6.769,15.844,5.213,29.222-4.729,40.882l-23.503,19.209L292.307,65.6L302.086,38.17z M255.695,27.092
		c8.547,12.593,13.522,28.011,15.398,34.607l-15.086,43.956l-15.871-45.632C241.314,48.119,249.025,35.63,255.695,27.092z
		 M205.429,44.899c1.227-2.754,2.638-5.307,4.091-7.614l9.044,25.682c0,0.058-0.001,0.126-0.001,0.178h0.064l0.633,1.796
		l14.579,41.919l-23.46-19.105C200.322,74.061,198.69,60.032,205.429,44.899z M145.426,100.99
		c-2.452-10.557,2.086-23.395,6.694-32.538l43.707,34.964l30.028,24.455c-42.675-0.921-59.725-6.609-66.252-10.127
		C151.697,113.506,147.059,108.025,145.426,100.99z M229.333,149.333h3.366l-52.116,52.113l-25.567-25.567
		C175.992,158.69,202.004,149.333,229.333,149.333z M139.804,190.837l25.7,25.7L112,270.122v-3.456
		C112,238.573,121.806,212.024,139.804,190.837z M128.995,434.037l51.686-51.595l60.332,60.323l-43.514,43.44
		C168.864,478.179,144.443,459.553,128.995,434.037z M229.333,490.667c-1.988,0-3.968-0.059-5.946-0.162l32.71-32.655l32.64,32.639
		c-2.047,0.117-4.069,0.178-6.071,0.178H229.333z M314.607,486.189l-43.423-43.422l60.238-60.313l51.585,51.577
		C367.605,459.458,343.223,478.079,314.607,486.189z"/>
	<rect x="245.333" y="208" style="fill:#231F20;" width="21.333" height="21.333"/>
	<rect x="245.333" y="357.333" style="fill:#231F20;" width="21.333" height="21.333"/>
	<rect x="320" y="282.667" style="fill:#231F20;" width="21.333" height="21.333"/>
	<rect x="170.667" y="282.667" style="fill:#231F20;" width="21.333" height="21.333"/>
	<rect x="170.667" y="432" style="fill:#231F20;" width="21.333" height="21.333"/>
	<rect x="320" y="432" style="fill:#231F20;" width="21.333" height="21.333"/>
</g>
</svg>